<?xml version="1.0" encoding="UTF-8"?>
<svg xmlns="http://www.w3.org/2000/svg" version="1.1" viewBox="0 0 140.34 186.31">
  <defs>
    <style>
      .cls-1 {
        fill: #1e1e1e;
      }
    </style>
  </defs>
  <!-- Generator: Adobe Illustrator 28.7.1, SVG Export Plug-In . SVG Version: 1.2.0 Build 142)  -->
  <g>
    <g id="_레이어_1" data-name="레이어_1">
      <g>
        <path class="cls-1" d="M68.75,160.87c-11.63,0-16.7-4.24-22.49-12.59-5.6-8.07-17.68-6.74-17.8-6.73-1.46.18-2.78-.86-2.95-2.32-.18-1.46.85-2.78,2.31-2.96.62-.08,15.36-1.76,22.82,8.98,5.04,7.26,8.67,10.3,18.12,10.3s13.08-3.04,18.12-10.3c7.45-10.74,22.19-9.06,22.81-8.98,1.46.18,2.49,1.5,2.32,2.97-.18,1.45-1.5,2.49-2.96,2.31-.19-.02-12.21-1.31-17.8,6.73-5.79,8.34-10.86,12.59-22.49,12.59Z"/>
        <path class="cls-1" d="M31.66,156.2c-8.16,0-13.12-3.04-15.98-5.9-5.22-5.21-7.48-13.74-6.02-22.81,1.25-7.79,5.66-12.64,10.32-17.79,4.11-4.52,8.76-9.65,12.31-17.85,7.56-17.45,17.37-76.27,17.46-76.87.24-1.45,1.62-2.43,3.06-2.19,1.45.24,2.43,1.61,2.18,3.06-.4,2.45-10.01,60.07-17.83,78.11-3.91,9.01-8.87,14.48-13.25,19.32-4.48,4.93-8.01,8.83-9.01,15.05-.91,5.7-.2,13.47,4.53,18.21,3.85,3.84,9.75,5.14,17.55,3.87,1.45-.23,2.81.75,3.05,2.2.23,1.45-.75,2.82-2.2,3.05-2.24.36-4.29.53-6.17.53Z"/>
        <path class="cls-1" d="M105.84,156.2c-1.89,0-3.94-.16-6.18-.53-1.45-.24-2.44-1.6-2.2-3.05.23-1.45,1.59-2.43,3.05-2.2,7.8,1.27,13.7-.04,17.55-3.87,4.74-4.73,5.44-12.51,4.53-18.21-1-6.23-4.53-10.12-9-15.05-4.38-4.83-9.34-10.31-13.25-19.32-7.82-18.04-17.43-75.66-17.84-78.11-.24-1.45.74-2.82,2.19-3.06,1.45-.24,2.82.74,3.05,2.19.1.59,9.91,59.42,17.47,76.87,3.55,8.2,8.21,13.33,12.3,17.85,4.66,5.14,9.07,10,10.32,17.79,1.45,9.07-.8,17.6-6.03,22.81-2.86,2.86-7.82,5.9-15.98,5.9Z"/>
      </g>
    </g>
  </g>
</svg>